<svg xmlns="http://www.w3.org/2000/svg" viewBox="0 0 378.906 53.053">
    <defs>
        <style>
            .cls-1{fill:#ffffff}.cls-2{fill:#e10000}.cls-3{fill:#ff4013}
        </style>
    </defs>
    <g transform="translate(-140.094 -8411.281)">
        <path d="M25.991-8.789H7.661L3.713 0H.094l15.04-32.9h3.431L33.605 0h-3.666zm-1.269-2.82l-7.9-17.672L8.93-11.609zM55.178.282a17.956 17.956 0 0 1-8.812-2.162 15.832 15.832 0 0 1-6.157-5.993 16.719 16.719 0 0 1-2.233-8.578 16.719 16.719 0 0 1 2.233-8.578 15.789 15.789 0 0 1 6.18-5.992 18.089 18.089 0 0 1 8.836-2.162 18.306 18.306 0 0 1 6.768 1.222 14.029 14.029 0 0 1 5.264 3.572l-2.209 2.209a13.1 13.1 0 0 0-9.729-3.9 14.3 14.3 0 0 0-7.1 1.786 13.05 13.05 0 0 0-5.005 4.888 13.549 13.549 0 0 0-1.81 6.956 13.549 13.549 0 0 0 1.81 6.956 13.05 13.05 0 0 0 5.005 4.888 14.3 14.3 0 0 0 7.1 1.786 12.928 12.928 0 0 0 9.729-3.948l2.209 2.209a14.228 14.228 0 0 1-5.288 3.6A18.181 18.181 0 0 1 55.178.282zm35.391 0a17.956 17.956 0 0 1-8.812-2.162A15.832 15.832 0 0 1 75.6-7.873a16.719 16.719 0 0 1-2.232-8.578 16.719 16.719 0 0 1 2.232-8.577 15.789 15.789 0 0 1 6.18-5.992 18.089 18.089 0 0 1 8.836-2.162 18.305 18.305 0 0 1 6.768 1.222 14.029 14.029 0 0 1 5.264 3.572l-2.209 2.209a13.1 13.1 0 0 0-9.729-3.9 14.3 14.3 0 0 0-7.1 1.786 13.05 13.05 0 0 0-5.006 4.888A13.549 13.549 0 0 0 76.8-16.45a13.549 13.549 0 0 0 1.81 6.956 13.05 13.05 0 0 0 5.006 4.888 14.3 14.3 0 0 0 7.1 1.786 12.928 12.928 0 0 0 9.729-3.948l2.209 2.209a14.228 14.228 0 0 1-5.287 3.6A18.181 18.181 0 0 1 90.569.282zm45.073-3.29V0h-23.265v-32.9h22.56v3.008h-19.082v11.7h17.014v2.961h-17.014v12.22zM146.123-32.9h3.477v29.892h18.424V0h-21.9zm53.251 29.892V0h-23.265v-32.9h22.56v3.008h-19.082v11.7H196.6v2.961h-17.013v12.22zM232.321 0L224.8-10.575a23.832 23.832 0 0 1-2.632.141h-8.836V0h-3.478v-32.9h12.314q6.3 0 9.87 3.008a10.236 10.236 0 0 1 3.572 8.272 10.694 10.694 0 0 1-1.951 6.51 10.806 10.806 0 0 1-5.569 3.83L236.128 0zm-10.246-13.4q4.888 0 7.473-2.162a7.468 7.468 0 0 0 2.585-6.063 7.508 7.508 0 0 0-2.585-6.134q-2.585-2.138-7.473-2.139h-8.742v16.5zm44.7 4.606h-18.33L244.494 0h-3.619l15.04-32.9h3.431L274.386 0h-3.666zm-1.269-2.82l-7.9-17.672-7.9 17.672zm21.385-18.283h-11.565V-32.9h26.6v3.008h-11.56V0h-3.478zm46.151 26.889V0h-23.265v-32.9h22.56v3.008h-19.082v11.7h17.014v2.961h-17.014v12.22z" class="cls-1" data-name="Path 6369" transform="translate(140 8464.052)"/>
        <g transform="translate(453.339 8411.281)">
            <path d="M472.595 282.769l-34.157 7.931 10.17-7.927-41.674-19.751z" class="cls-2" transform="translate(-406.934 -263.018)"/>
            <path d="M472.595 282.769h-23.987l-41.674-19.751z" class="cls-3" transform="translate(-406.934 -263.018)"/>
        </g>
    </g>
</svg>
